<svg version="1.2" xmlns="http://www.w3.org/2000/svg" viewBox="0 0 2000 500" width="2000" height="500"><style>.a{fill:#edf0ef}.b{fill:#2e3f78}.c{fill:#eaeceb}.d{fill:#939598}</style><path class="a" d="m354.2 295c23.9 0 23.9-30.6 23.9-30.6v-30.6c0 0 0-30.5-23.9-30.5h-73.9v91.7zm0.5-30.6c0 0 0 8.6-4 8.6h-48.6v-47.8h48.6c4 0 4 8.6 4 8.6zm103.8 30.6c23.9 0 23.9-30.6 23.9-30.6v-30.6c0 0 0-30.5-23.9-30.5h-73.9v91.7zm0.4-30.6c0 0 0 8.6-3.9 8.6h-48.6v-47.8h48.6c3.9 0 3.9 8.6 3.9 8.6zm29.9 30.6h21.9v-69.8h54.2c3.8 0 3.8 8.6 3.8 8.6 0 0 0 8.6-3.8 8.2h-38.5l38.9 53h26.5l-23.9-31c24.2 0 24.2-30.2 24.2-30.2 0 0 0-30.5-23.8-30.5h-79.5zm155.3-91.7h90.8v22h-34.5v69.7h-21.7v-69.7h-34.6zm192.2 91.6v-21.9h-73v-47.8h73v-21.9h-94.9v91.6zm-40.9-34.9h40.9v-21.9h-57.5zm69.3-30.4c4.1-7.7 26.3-7.7 26.3-7.7 0 0 22.2 0 26.2 7.7v1.9h21.9v-9.9c-2.1-20.6-48.1-20.6-48.1-20.6 0 0-46.2 0-48.2 20.6v54.8c2 20.5 48.2 20.5 48.2 20.5 0 0 46 0 48.1-20.5v-10h-21.9v2c-4 7.6-26.2 7.6-26.2 7.6 0 0-22.2 0-26.3-7.6zm102.7 30.3h49.3v34.9h21.9v-91.6h-21.9v34.8h-49.3v-34.8h-21.8v91.6h21.8zm197.9 0c3.8 0 3.8 6.4 3.8 6.4 0 0 0 6.6-3.8 6.6h-74.8v22h78.3c23.7 0 23.7-28.6 23.7-28.6 0 0 0-28.3-24.2-28.3h-51.6c-3.9 0-3.9-6.3-3.9-6.3 0 0 0-6.6 3.9-6.6h74.7v-21.9h-78.1c-23.9 0-23.9 28.5-23.9 28.5 0 0 0 28.2 24.3 28.2zm129.9-38.4c-1.9-20.5-48.1-20.5-48.1-20.5 0 0-46.2 0-48.1 20.5v54.9c1.9 20.5 48.1 20.5 48.1 20.5 0 0 46.2 0 48.1-20.5zm-21.7 46.8c-4.2 7.7-26.4 7.7-26.4 7.7 0 0-22.2 0-26.3-7.7v-38.8c4.1-7.8 26.3-7.8 26.3-7.8 0 0 22.2 0 26.3 7.8zm119 4.6v21.9h-90.8v-91.6h21.8v69.7zm102.8-69.7h-21.9v65.1c-4.1 7.7-26.3 7.7-26.3 7.7 0 0-22.2 0-26.2-7.7v-65.1h-21.9v73.2c1.9 20.5 48.1 20.5 48.1 20.5 0 0 46.2 0 48.2-20.5zm6.4 0h90.9v21.9h-34.6v69.7h-21.7v-69.7h-34.6zm119.2 91.7h-21.8v-91.7h21.8zm102.7-73.3c-1.9-20.5-48.1-20.5-48.1-20.5 0 0-46.2 0-48.1 20.5v54.8c1.9 20.6 48.1 20.6 48.1 20.6 0 0 46.2 0 48.1-20.6zm-21.7 46.8c-4.2 7.7-26.4 7.7-26.4 7.7 0 0-22.2 0-26.3-7.7v-38.7c4.1-7.8 26.3-7.8 26.3-7.8 0 0 22.2 0 26.3 7.8zm28.2 26.5h21.8v-65.3c4.1-7.7 26.3-7.7 26.3-7.7 0 0 22.2 0 26.3 7.7v65.3h21.8v-73.3c-1.9-20.5-48.1-20.5-48.1-20.5 0 0-46.2 0-48.1 20.5zm177.5-34.9c3.8 0 3.8 6.3 3.8 6.3 0 0 0 6.6-3.8 6.6h-74.8v22h78.2c23.8 0 23.8-28.6 23.8-28.6 0 0 0-28.3-24.2-28.3h-51.6c-3.9 0-3.9-6.2-3.9-6.2 0 0 0-6.6 3.9-6.6h74.7v-22h-78.1c-23.9 0-23.9 28.6-23.9 28.6 0 0 0 28.2 24.3 28.2z"/><path class="b" d=""/><path class="c" d="m250.7 251.1l-194-118.7 66.7 118.7-59.1 75.7z"/><path class="d" d="m354.7 214.1c3.3 0 3.3-5 0-5-3.2 0-3.2 5 0 5z"/></svg>